<svg id="Capa_1" enable-background="new 0 0 501 501" height="512" viewBox="0 0 501 501" width="512" xmlns="http://www.w3.org/2000/svg"><g><path d="m495.5 245c0 135.31-109.69 245-245 245s-245-109.69-245-245 109.69-245 245-245 245 109.69 245 245z" fill="#1f3595"/><path d="m77.17 449.934 69.08-148.144 103.319 48.178-69.081 148.144c-1.615 3.464-6.363 3.908-8.592.804l-33.153-46.154-56.666 4.271c-3.811.287-6.523-3.635-4.907-7.099zm346.66 0-69.08-148.144-103.32 48.179 69.081 148.144c1.615 3.464 6.363 3.908 8.592.804l33.153-46.154 56.666 4.271c3.812.286 6.524-3.636 4.908-7.1z" fill="#07b128"/><path d="m110.154 454.917-22.871 1.724 69.843-149.779 18.126 8.452zm128.54-110.02-18.126-8.452-65.098 139.603 13.381 18.628zm152.152 110.02 22.871 1.724-69.843-149.779-18.126 8.452zm-58.697 39.759 13.381-18.628-65.098-139.603-18.126 8.452z" fill="#f19b0b"/><path d="m121.221 419.105c-7.623.574-13.045-7.27-9.815-14.198l37.267-79.919c2.334-5.005 8.284-7.171 13.289-4.837 5.005 2.334 7.171 8.284 4.837 13.289l-37.267 79.919c-1.527 3.277-4.705 5.474-8.311 5.746zm71.754 23.838 37.267-79.919c2.334-5.005.169-10.955-4.837-13.289-5.005-2.334-10.955-.169-13.289 4.837l-37.267 79.919c-1.528 3.277-1.168 7.124.941 10.06 4.459 6.208 13.954 5.32 17.185-1.608zm186.804-23.838c7.623.574 13.045-7.27 9.815-14.198l-37.267-79.919c-2.334-5.005-8.284-7.171-13.289-4.837-5.005 2.334-7.171 8.284-4.837 13.289l37.267 79.919c1.527 3.277 4.705 5.474 8.311 5.746zm-54.569 25.445c2.109-2.937 2.469-6.783.941-10.06l-37.267-79.919c-2.334-5.005-8.284-7.171-13.289-4.837-5.005 2.334-7.171 8.284-4.837 13.289l37.267 79.919c3.231 6.929 12.726 7.817 17.185 1.608z" fill="#fdbf43"/><path d="m450.5 219c0 110.457-89.543 200-200 200s-200-89.543-200-200 89.543-200 200-200 200 89.543 200 200z" fill="#f19b0b"/><path d="m265.106 29.883c5.356-16.696 30.01-12.791 29.944 4.743-.056 14.918 19.059 21.128 27.782 9.027 10.253-14.224 32.494-2.891 27.013 13.764-4.663 14.17 11.597 25.984 23.632 17.17 14.146-10.359 31.797 7.291 21.438 21.438-8.814 12.036 3 28.296 17.17 23.632 16.655-5.481 27.988 16.76 13.764 27.013-12.102 8.723-5.891 27.838 9.027 27.782 17.534-.066 21.439 24.589 4.743 29.944-14.205 4.556-14.205 24.655 0 29.211 16.696 5.355 12.791 30.01-4.743 29.944-14.918-.056-21.128 19.059-9.027 27.782 14.224 10.253 2.891 32.494-13.764 27.013-14.17-4.663-25.984 11.597-17.17 23.632 10.359 14.146-7.291 31.797-21.438 21.438-12.036-8.814-28.296 3-23.632 17.17 5.481 16.655-16.76 27.988-27.013 13.764-8.723-12.102-27.838-5.891-27.782 9.027.066 17.534-24.589 21.439-29.944 4.743-4.556-14.205-24.655-14.205-29.211 0-5.355 16.696-30.01 12.791-29.944-4.743.056-14.918-19.059-21.128-27.782-9.027-10.253 14.224-32.494 2.891-27.013-13.764 4.663-14.17-11.597-25.984-23.632-17.17-14.146 10.359-31.797-7.291-21.438-21.438 8.814-12.036-3-28.296-17.17-23.632-16.655 5.481-27.988-16.76-13.764-27.013 12.102-8.723 5.891-27.838-9.027-27.782-17.534.066-21.439-24.589-4.743-29.944 14.205-4.556 14.205-24.655 0-29.211-16.696-5.355-12.791-30.01 4.743-29.944 14.918.056 21.128-19.059 9.027-27.782-14.224-10.253-2.891-32.494 13.764-27.013 14.17 4.663 25.984-11.597 17.17-23.632-10.359-14.146 7.291-31.797 21.438-21.438 12.036 8.814 28.296-3 23.632-17.17-5.481-16.655 16.76-27.988 27.013-13.764 8.723 12.102 27.838 5.891 27.782-9.027-.066-17.534 24.589-21.439 29.944-4.743 4.556 14.204 24.654 14.204 29.211 0z" fill="#fdf061"/><path d="m394.914 341.977c10.359 14.146-7.291 31.797-21.438 21.438-12.036-8.814-28.296 3-23.632 17.17 5.481 16.655-16.76 27.988-27.013 13.764-8.723-12.102-27.838-5.891-27.781 9.027.066 17.534-24.589 21.438-29.944 4.743-4.556-14.205-24.655-14.205-29.211 0-5.356 16.696-30.01 12.791-29.944-4.743.056-14.918-19.059-21.128-27.781-9.027-10.253 14.224-32.494 2.891-27.013-13.764 4.663-14.17-11.597-25.984-23.632-17.17-14.146 10.359-31.797-7.291-21.438-21.438 8.814-12.036-3-28.295-17.17-23.632-16.655 5.481-27.988-16.76-13.764-27.013 12.102-8.723 5.891-27.838-9.027-27.781-17.534.066-21.439-24.589-4.743-29.944 14.205-4.556 14.205-24.655 0-29.211-16.696-5.355-12.791-30.01 4.743-29.944 14.918.056 21.128-19.059 9.027-27.781-14.224-10.253-2.891-32.494 13.764-27.013.215.071.429.136.642.197 7.008 127.729 112.803 229.145 242.285 229.145 21.556 0 42.456-2.811 62.352-8.086.223.357.461.712.718 1.063z" fill="#f1ca50"/><path d="m413.156 219c0 89.832-72.824 162.656-162.656 162.656s-162.656-72.824-162.656-162.656 72.824-162.656 162.656-162.656 162.656 72.824 162.656 162.656z" fill="#fff2b4"/><path d="m413.156 219c0 36.757-12.192 70.665-32.753 97.903-27.238 20.561-61.146 32.753-97.903 32.753-89.832 0-162.656-72.824-162.656-162.656 0-36.757 12.192-70.665 32.753-97.903 27.238-20.561 61.146-32.753 97.903-32.753 89.832 0 162.656 72.824 162.656 162.656z" fill="#fff5f5"/><path d="m393.156 219c0 78.787-63.869 142.656-142.656 142.656s-142.656-63.869-142.656-142.656 63.869-142.656 142.656-142.656 142.656 63.869 142.656 142.656z" fill="#f52c2c"/><path d="m353.156 299c0 8.284-45.961 15-102.656 15s-102.656-6.716-102.656-15 45.961-15 102.656-15 102.656 6.716 102.656 15z" fill="#c92c2c"/><path d="m158.623 193.251-7.818 4.276c-.135.074-.247.186-.321.321l-4.276 7.818c-.306.56-1.111.56-1.417 0l-4.276-7.818c-.074-.135-.185-.247-.321-.321l-7.818-4.276c-.56-.306-.56-1.111 0-1.417l7.818-4.276c.135-.074.247-.186.321-.321l4.276-7.818c.306-.56 1.111-.56 1.417 0l4.276 7.818c.074.135.185.247.321.321l7.818 4.276c.56.306.56 1.111 0 1.417zm210-1.417-7.818-4.276c-.135-.074-.247-.186-.321-.321l-4.276-7.818c-.306-.56-1.111-.56-1.417 0l-4.276 7.818c-.074.135-.185.247-.321.321l-7.818 4.276c-.56.306-.56 1.111 0 1.417l7.818 4.276c.135.074.247.186.321.321l4.276 7.818c.306.56 1.111.56 1.417 0l4.276-7.818c.074-.135.185-.247.321-.321l7.818-4.276c.56-.306.56-1.111 0-1.417z" fill="#fd7a7a"/><path d="m253.076 95.601 8.694 17.615c.418.848 1.227 1.435 2.163 1.571l19.44 2.825c2.356.342 3.296 3.237 1.592 4.899l-14.067 13.712c-.677.66-.986 1.611-.826 2.542l3.321 19.361c.402 2.346-2.06 4.136-4.167 3.028l-17.387-9.141c-.837-.44-1.836-.44-2.673 0l-17.387 9.141c-2.107 1.108-4.57-.681-4.167-3.028l3.321-19.361c.16-.932-.149-1.882-.826-2.542l-14.067-13.712c-1.705-1.662-.764-4.557 1.592-4.899l19.44-2.825c.935-.136 1.744-.723 2.163-1.571l8.694-17.615c1.049-2.135 4.093-2.135 5.147 0z" fill="#ffe899"/><path d="m284.963 122.511-14.067 13.711c-.641.625-.952 1.511-.847 2.395-1.814.252-3.666.382-5.549.382-15.989 0-29.786-9.382-36.189-22.94l8.757-1.273c.935-.136 1.744-.723 2.163-1.571l8.694-17.615c1.054-2.135 4.098-2.135 5.151 0l8.694 17.615c.418.848 1.227 1.435 2.163 1.571l19.44 2.825c2.354.343 3.295 3.239 1.59 4.9z" fill="#fff2b4"/><path d="m194.644 147.348-7.814 7.617c-.376.367-.548.895-.459 1.412l1.845 10.755c.224 1.303-1.144 2.297-2.315 1.682l-9.658-5.078c-.465-.244-1.02-.244-1.485 0l-9.658 5.078c-1.17.615-2.539-.379-2.315-1.682l1.845-10.755c.089-.518-.083-1.046-.459-1.412l-7.814-7.617c-.947-.923-.424-2.531.884-2.721l10.798-1.569c.52-.075.969-.402 1.201-.873l4.829-9.785c.585-1.186 2.276-1.186 2.861 0l4.829 9.785c.232.471.682.797 1.201.873l10.799 1.569c1.309.189 1.832 1.798.885 2.721zm150 0c.947-.923.424-2.531-.884-2.721l-10.799-1.569c-.52-.075-.969-.402-1.201-.873l-4.829-9.785c-.585-1.186-2.276-1.186-2.861 0l-4.829 9.785c-.232.471-.682.797-1.201.873l-10.798 1.569c-1.309.19-1.831 1.798-.884 2.721l7.814 7.617c.376.367.548.895.459 1.412l-1.845 10.755c-.224 1.303 1.144 2.297 2.315 1.682l9.658-5.078c.465-.244 1.02-.244 1.485 0l9.658 5.078c1.17.615 2.538-.379 2.315-1.682l-1.845-10.755c-.089-.518.083-1.046.459-1.412z" fill="#fdcb6b"/><path d="m305.644 188.506 15.856 55.494h-142l15.856-55.494c2.453-8.586 10.301-14.506 19.23-14.506h71.828c8.93 0 16.777 5.92 19.23 14.506z" fill="#f3d373"/><path d="m218.356 188.506-15.856 55.494h-23l15.856-55.494c2.453-8.586 10.301-14.506 19.23-14.506h23c-8.93 0-16.777 5.92-19.23 14.506z" fill="#f1ca50"/><path d="m245.5 199v20c0 2.761-2.239 5-5 5h-30c-2.761 0-5-2.239-5-5v-20c0-2.761 2.239-5 5-5h30c2.761 0 5 2.239 5 5zm45-5h-30c-2.761 0-5 2.239-5 5v20c0 2.761 2.239 5 5 5h30c2.761 0 5-2.239 5-5v-20c0-2.761-2.239-5-5-5z" fill="#fff2b4"/><path d="m160.5 241.095c0-5.316 3.257-10.088 8.206-12.028 24.607-9.64 52.389-15.067 81.794-15.067s57.187 5.427 81.794 15.068c4.949 1.939 8.206 6.712 8.206 12.028 0 7.127-5.778 12.905-12.905 12.905h-154.19c-7.127-.001-12.905-5.779-12.905-12.906z" fill="#fdbf43"/><path d="m206.105 254h-32.701c-7.127 0-12.905-5.778-12.905-12.905 0-5.316 3.257-10.088 8.206-12.028 21.182-8.299 44.717-13.475 69.615-14.755-8.853 3.349-17.41 7.468-25.615 12.289-4.949 2.909-8.206 10.068-8.206 18.041.001 3.395.584 6.585 1.606 9.358z" fill="#f19b0b"/><path d="m185.5 244h130c5.523 0 10 4.477 10 10v35c0 2.761-2.239 5-5 5h-9.514c-2.232 0-4.194-1.48-4.808-3.626l-4.678-16.374h-102l-4.678 16.374c-.613 2.147-2.575 3.626-4.808 3.626h-9.514c-2.761 0-5-2.239-5-5v-35c0-5.523 4.477-10 10-10z" fill="#f5dc90"/><path d="m194.756 290.584c-.678 2.032-2.584 3.416-4.742 3.416h-9.514c-2.761 0-5-2.239-5-5v-35c0-5.523 4.477-10 10-10h19c-5.523 0-10 4.477-10 10v35c0 .554.09 1.086.256 1.584z" fill="#f3d373"/></g></svg>